<svg id="svg" version="1.1" width="400" height="438.57566765578633" viewBox="0 0 400 438.57566765578633" xmlns="http://www.w3.org/2000/svg" xmlns:xlink="http://www.w3.org/1999/xlink" style="display: block;"><g id="svgg"><path id="path0" d="M122.921 73.214 C 118.335 74.038,113.534 77.814,111.305 82.352 L 110.200 84.600 110.089 170.200 C 110.014 227.801,110.114 257.043,110.396 259.600 C 110.973 264.850,111.506 268.347,111.980 270.000 C 112.201 270.770,112.771 273.020,113.247 275.000 C 113.723 276.980,114.247 278.780,114.410 279.000 C 114.574 279.220,114.839 280.030,115.000 280.800 C 115.161 281.570,115.422 282.380,115.581 282.600 C 115.740 282.820,116.289 284.146,116.801 285.547 C 121.403 298.130,133.157 314.069,144.600 323.245 C 149.302 327.015,158.842 333.200,159.956 333.200 C 160.200 333.200,160.400 333.380,160.400 333.600 C 160.400 333.820,160.564 334.000,160.764 334.000 C 160.965 334.000,162.540 334.646,164.264 335.435 C 169.031 337.617,169.555 337.831,173.000 338.996 C 188.567 344.263,208.260 345.476,224.400 342.162 C 231.013 340.805,240.409 338.029,241.380 337.146 C 241.589 336.956,241.988 336.800,242.267 336.800 C 243.815 336.800,255.155 330.673,260.442 326.980 C 272.629 318.468,283.720 305.526,290.077 292.400 C 293.001 286.362,293.134 286.038,295.088 280.200 C 302.607 257.732,301.396 228.371,292.051 206.564 C 290.675 203.354,286.248 194.655,285.605 193.898 C 285.372 193.624,284.059 191.690,282.687 189.600 C 281.315 187.510,279.724 185.260,279.150 184.600 C 274.192 178.894,271.776 176.313,269.793 174.600 C 261.015 167.020,255.571 163.542,245.200 158.886 C 241.455 157.205,234.892 155.259,228.200 153.847 C 217.906 151.676,199.444 152.306,189.400 155.173 C 185.059 156.412,182.147 157.367,181.820 157.660 C 181.611 157.847,181.196 158.000,180.898 158.000 C 175.981 158.000,157.689 170.151,149.305 178.987 C 147.107 181.304,145.195 183.200,145.059 183.200 C 144.922 183.200,144.754 161.555,144.685 135.100 C 144.597 100.690,144.431 86.488,144.104 85.200 C 141.844 76.310,133.131 71.380,122.921 73.214 M213.600 183.599 C 219.064 184.577,224.472 185.919,224.980 186.423 C 225.189 186.630,225.604 186.800,225.902 186.800 C 227.247 186.800,237.061 191.811,239.400 193.692 C 239.620 193.869,240.970 194.890,242.400 195.960 C 247.999 200.151,259.600 214.329,259.600 216.980 C 259.600 217.062,260.230 218.474,261.000 220.118 C 261.770 221.762,262.400 223.311,262.400 223.559 C 262.400 223.808,262.571 224.323,262.779 224.705 C 263.160 225.404,264.290 229.320,265.158 232.951 C 266.827 239.935,267.018 253.351,265.555 260.800 C 265.360 261.790,265.014 263.590,264.785 264.800 C 264.557 266.010,264.225 267.360,264.047 267.800 C 263.870 268.240,263.408 269.590,263.022 270.800 C 262.268 273.158,261.973 273.885,260.034 278.164 C 256.940 284.995,251.121 292.892,245.568 297.800 C 241.995 300.957,241.356 301.454,238.200 303.532 C 218.113 316.755,191.316 316.670,171.052 303.318 C 169.483 302.285,168.110 301.339,168.000 301.217 C 167.890 301.095,167.113 300.484,166.274 299.858 C 162.893 297.337,153.600 286.689,153.600 285.336 C 153.600 285.186,153.348 284.779,153.041 284.431 C 151.549 282.748,147.142 272.822,146.100 268.800 C 142.121 253.440,142.463 238.015,147.086 224.400 C 148.863 219.167,153.526 210.247,155.791 207.749 C 156.016 207.501,156.470 206.872,156.800 206.351 C 161.159 199.467,174.430 189.865,184.200 186.526 C 188.431 185.080,189.504 184.775,191.875 184.342 C 193.154 184.109,194.920 183.779,195.800 183.609 C 198.171 183.151,211.060 183.144,213.600 183.599 " stroke="none" fill="#fb9b73" fill-rule="evenodd"></path><path id="path1" d="M138.800 76.125 C 138.800 76.194,139.385 76.779,140.100 77.425 L 141.400 78.600 140.225 77.300 C 139.130 76.088,138.800 75.816,138.800 76.125 M109.396 170.600 C 109.396 216.360,109.443 235.021,109.500 212.068 C 109.557 189.116,109.557 151.676,109.500 128.868 C 109.443 106.061,109.396 124.840,109.396 170.600 M144.898 135.900 C 144.844 161.695,144.952 182.800,145.138 182.800 C 145.324 182.800,145.819 182.395,146.238 181.900 L 147.000 181.000 146.102 181.760 L 145.203 182.521 145.100 135.760 L 144.997 89.000 144.898 135.900 M206.900 152.287 C 207.505 152.378,208.495 152.378,209.100 152.287 C 209.705 152.195,209.210 152.120,208.000 152.120 C 206.790 152.120,206.295 152.195,206.900 152.287 M214.100 152.287 C 214.705 152.378,215.695 152.378,216.300 152.287 C 216.905 152.195,216.410 152.120,215.200 152.120 C 213.990 152.120,213.495 152.195,214.100 152.287 M149.586 177.900 L 147.400 180.200 149.700 178.014 C 151.837 175.982,152.183 175.600,151.886 175.600 C 151.824 175.600,150.789 176.635,149.586 177.900 M197.905 183.883 C 198.402 183.979,199.122 183.975,199.505 183.875 C 199.887 183.775,199.480 183.696,198.600 183.701 C 197.720 183.705,197.407 183.787,197.905 183.883 M210.305 183.883 C 210.802 183.979,211.522 183.975,211.905 183.875 C 212.287 183.775,211.880 183.696,211.000 183.701 C 210.120 183.705,209.807 183.787,210.305 183.883 M300.114 239.400 C 300.117 240.500,300.195 240.903,300.287 240.295 C 300.379 239.686,300.377 238.786,300.282 238.295 C 300.187 237.803,300.111 238.300,300.114 239.400 M143.693 242.000 C 143.693 242.770,143.775 243.085,143.876 242.700 C 143.976 242.315,143.976 241.685,143.876 241.300 C 143.775 240.915,143.693 241.230,143.693 242.000 M266.093 244.000 C 266.093 244.770,266.175 245.085,266.276 244.700 C 266.376 244.315,266.376 243.685,266.276 243.300 C 266.175 242.915,266.093 243.230,266.093 244.000 M266.093 252.000 C 266.093 252.770,266.175 253.085,266.276 252.700 C 266.376 252.315,266.376 251.685,266.276 251.300 C 266.175 250.915,266.093 251.230,266.093 252.000 M300.109 256.400 C 300.109 257.390,300.187 257.795,300.282 257.300 C 300.378 256.805,300.378 255.995,300.282 255.500 C 300.187 255.005,300.109 255.410,300.109 256.400 M265.693 256.800 C 265.693 257.570,265.775 257.885,265.876 257.500 C 265.976 257.115,265.976 256.485,265.876 256.100 C 265.775 255.715,265.693 256.030,265.693 256.800 M109.709 258.000 C 109.709 258.990,109.787 259.395,109.882 258.900 C 109.978 258.405,109.978 257.595,109.882 257.100 C 109.787 256.605,109.709 257.010,109.709 258.000 M197.300 312.676 C 197.685 312.776,198.315 312.776,198.700 312.676 C 199.085 312.575,198.770 312.493,198.000 312.493 C 197.230 312.493,196.915 312.575,197.300 312.676 M210.705 312.683 C 211.202 312.779,211.922 312.775,212.305 312.675 C 212.687 312.575,212.280 312.496,211.400 312.501 C 210.520 312.505,210.207 312.587,210.705 312.683 M201.105 313.083 C 201.602 313.179,202.322 313.175,202.705 313.075 C 203.087 312.975,202.680 312.896,201.800 312.901 C 200.920 312.905,200.607 312.987,201.105 313.083 M207.105 313.083 C 207.602 313.179,208.322 313.175,208.705 313.075 C 209.087 312.975,208.680 312.896,207.800 312.901 C 206.920 312.905,206.607 312.987,207.105 313.083 M272.581 317.300 L 271.000 319.000 272.700 317.419 C 273.635 316.549,274.400 315.784,274.400 315.719 C 274.400 315.416,274.052 315.719,272.581 317.300 M197.500 344.289 C 198.215 344.378,199.385 344.378,200.100 344.289 C 200.815 344.201,200.230 344.128,198.800 344.128 C 197.370 344.128,196.785 344.201,197.500 344.289 M209.500 344.289 C 210.215 344.378,211.385 344.378,212.100 344.289 C 212.815 344.201,212.230 344.128,210.800 344.128 C 209.370 344.128,208.785 344.201,209.500 344.289 " stroke="none" fill="#756c58" fill-rule="evenodd"></path><path id="path2" d="M178.202 0.495 C 175.122 0.702,172.512 1.014,172.402 1.188 C 172.291 1.362,170.535 1.635,168.500 1.795 C 166.465 1.954,164.800 2.225,164.800 2.395 C 164.800 2.566,163.450 2.833,161.800 2.987 C 160.150 3.142,158.800 3.412,158.800 3.588 C 158.800 3.763,157.630 4.032,156.200 4.185 C 154.770 4.338,153.600 4.612,153.600 4.793 C 153.600 4.973,152.520 5.247,151.200 5.400 C 149.880 5.553,148.800 5.823,148.800 6.000 C 148.800 6.177,147.720 6.447,146.400 6.600 C 145.080 6.753,144.000 7.020,144.000 7.194 C 144.000 7.367,143.190 7.631,142.200 7.779 C 141.210 7.928,140.400 8.195,140.400 8.373 C 140.400 8.551,139.500 8.816,138.400 8.962 C 137.300 9.108,136.400 9.378,136.400 9.563 C 136.400 9.747,135.680 10.013,134.800 10.154 C 133.920 10.294,133.200 10.572,133.200 10.770 C 133.200 10.968,132.435 11.256,131.500 11.409 C 130.565 11.563,129.045 12.029,128.122 12.444 C 127.199 12.860,126.252 13.200,126.017 13.200 C 125.781 13.200,125.277 13.374,124.895 13.586 C 123.643 14.282,120.453 15.600,120.022 15.600 C 119.790 15.600,119.600 15.760,119.600 15.955 C 119.600 16.151,118.970 16.429,118.200 16.574 C 117.430 16.718,116.800 16.994,116.800 17.186 C 116.800 17.379,116.260 17.655,115.600 17.800 C 114.940 17.945,114.400 18.215,114.400 18.400 C 114.400 18.585,113.860 18.855,113.200 19.000 C 112.540 19.145,112.000 19.415,112.000 19.600 C 112.000 19.785,111.460 20.055,110.800 20.200 C 110.140 20.345,109.600 20.615,109.600 20.800 C 109.600 20.985,109.060 21.255,108.400 21.400 C 107.740 21.545,107.200 21.815,107.200 22.000 C 107.200 22.185,106.660 22.455,106.000 22.600 C 105.340 22.745,104.800 23.015,104.800 23.200 C 104.800 23.385,104.275 23.652,103.633 23.793 C 102.992 23.934,102.367 24.308,102.246 24.624 C 102.124 24.941,101.749 25.200,101.413 25.200 C 101.076 25.200,100.800 25.366,100.800 25.568 C 100.800 25.771,100.260 26.055,99.600 26.200 C 98.940 26.345,98.400 26.626,98.400 26.824 C 98.400 27.022,97.950 27.298,97.400 27.436 C 96.850 27.574,96.400 27.847,96.400 28.043 C 96.400 28.240,96.124 28.400,95.787 28.400 C 95.451 28.400,95.078 28.654,94.959 28.964 C 94.839 29.274,94.287 29.642,93.731 29.782 C 92.703 30.040,90.309 31.554,90.067 32.100 C 89.993 32.265,89.761 32.400,89.550 32.400 C 89.102 32.400,86.661 34.062,86.467 34.500 C 86.393 34.665,86.118 34.800,85.856 34.800 C 85.593 34.800,85.070 35.160,84.693 35.600 C 84.316 36.040,83.755 36.400,83.447 36.400 C 83.138 36.400,82.782 36.670,82.655 37.000 C 82.529 37.330,82.215 37.600,81.958 37.600 C 81.702 37.600,81.094 38.029,80.608 38.553 C 80.122 39.077,79.353 39.624,78.899 39.768 C 78.445 39.913,77.973 40.294,77.850 40.615 C 77.726 40.937,77.415 41.200,77.158 41.200 C 76.902 41.200,76.301 41.621,75.824 42.137 C 75.346 42.652,74.655 43.241,74.288 43.447 C 73.428 43.928,70.436 46.476,67.885 48.900 C 66.786 49.945,65.758 50.800,65.602 50.800 C 65.200 50.800,52.975 63.011,50.728 65.658 C 49.698 66.870,48.396 68.298,47.835 68.831 C 47.273 69.364,46.811 69.942,46.807 70.115 C 46.803 70.289,46.080 71.180,45.200 72.096 C 44.320 73.012,43.600 73.891,43.600 74.050 C 43.600 74.209,43.095 74.847,42.477 75.469 C 41.859 76.091,41.235 76.915,41.089 77.300 C 40.944 77.685,40.652 78.000,40.440 78.000 C 40.227 78.000,39.931 78.388,39.780 78.862 C 39.630 79.337,39.077 80.122,38.553 80.608 C 38.029 81.094,37.600 81.702,37.600 81.958 C 37.600 82.215,37.330 82.529,37.000 82.655 C 36.670 82.782,36.400 83.108,36.400 83.381 C 36.400 83.653,36.040 84.202,35.600 84.600 C 35.160 84.998,34.800 85.551,34.800 85.829 C 34.800 86.106,34.665 86.393,34.500 86.467 C 34.045 86.669,32.400 89.110,32.400 89.584 C 32.400 89.813,32.211 90.000,31.979 90.000 C 31.748 90.000,31.370 90.540,31.140 91.200 C 30.910 91.860,30.574 92.400,30.393 92.400 C 30.212 92.400,29.948 92.925,29.807 93.567 C 29.666 94.208,29.292 94.833,28.976 94.954 C 28.659 95.076,28.400 95.451,28.400 95.787 C 28.400 96.124,28.240 96.400,28.043 96.400 C 27.847 96.400,27.574 96.850,27.436 97.400 C 27.298 97.950,27.008 98.400,26.792 98.400 C 26.577 98.400,26.400 98.657,26.400 98.971 C 26.400 99.286,26.154 99.789,25.853 100.090 C 25.552 100.391,25.180 101.034,25.026 101.519 C 24.872 102.003,24.593 102.400,24.405 102.400 C 24.217 102.400,23.945 102.940,23.800 103.600 C 23.655 104.260,23.385 104.800,23.200 104.800 C 23.015 104.800,22.745 105.340,22.600 106.000 C 22.455 106.660,22.185 107.200,22.000 107.200 C 21.815 107.200,21.545 107.740,21.400 108.400 C 21.255 109.060,20.985 109.600,20.800 109.600 C 20.615 109.600,20.345 110.140,20.200 110.800 C 20.055 111.460,19.785 112.000,19.600 112.000 C 19.415 112.000,19.145 112.540,19.000 113.200 C 18.855 113.860,18.585 114.400,18.400 114.400 C 18.215 114.400,17.945 114.940,17.800 115.600 C 17.655 116.260,17.379 116.800,17.186 116.800 C 16.994 116.800,16.718 117.430,16.574 118.200 C 16.429 118.970,16.151 119.600,15.955 119.600 C 15.760 119.600,15.600 119.790,15.600 120.022 C 15.600 120.427,14.322 123.553,13.647 124.800 C 13.468 125.130,13.081 126.345,12.785 127.500 C 12.490 128.655,12.123 129.600,11.970 129.600 C 11.816 129.600,11.569 130.410,11.421 131.400 C 11.272 132.390,10.990 133.200,10.794 133.200 C 10.597 133.200,10.318 133.832,10.173 134.604 C 10.028 135.377,9.755 136.104,9.566 136.221 C 9.378 136.337,9.105 137.325,8.960 138.416 C 8.815 139.507,8.551 140.400,8.373 140.400 C 8.195 140.400,7.928 141.210,7.779 142.200 C 7.631 143.190,7.367 144.000,7.194 144.000 C 7.020 144.000,6.753 145.080,6.600 146.400 C 6.447 147.720,6.180 148.800,6.007 148.800 C 5.834 148.800,5.568 149.790,5.417 151.000 C 5.266 152.210,4.986 153.200,4.795 153.200 C 4.605 153.200,4.324 154.460,4.173 156.000 C 4.021 157.540,3.755 158.800,3.582 158.800 C 3.410 158.800,3.142 160.150,2.987 161.800 C 2.833 163.450,2.566 164.800,2.395 164.800 C 2.225 164.800,1.954 166.465,1.795 168.500 C 1.635 170.535,1.369 172.290,1.204 172.400 C -0.312 173.410,-0.321 225.755,1.194 226.800 C 1.354 226.910,1.613 228.617,1.771 230.593 C 1.928 232.570,2.206 234.370,2.388 234.593 C 2.571 234.817,2.849 236.395,3.007 238.100 C 3.165 239.805,3.432 241.200,3.600 241.200 C 3.769 241.200,4.032 242.370,4.185 243.800 C 4.338 245.230,4.612 246.400,4.793 246.400 C 4.973 246.400,5.247 247.480,5.400 248.800 C 5.553 250.120,5.818 251.200,5.988 251.200 C 6.158 251.200,6.416 252.100,6.562 253.200 C 6.708 254.300,6.981 255.200,7.168 255.200 C 7.355 255.200,7.632 256.190,7.783 257.400 C 7.934 258.610,8.214 259.600,8.404 259.600 C 8.595 259.600,8.872 260.410,9.021 261.400 C 9.169 262.390,9.439 263.200,9.621 263.200 C 9.802 263.200,10.072 264.010,10.221 265.000 C 10.369 265.990,10.635 266.800,10.810 266.800 C 10.986 266.800,11.251 267.519,11.400 268.398 C 11.548 269.277,11.816 270.086,11.995 270.197 C 12.173 270.307,12.536 271.298,12.800 272.399 C 13.064 273.499,13.422 274.400,13.595 274.400 C 13.769 274.400,14.029 275.030,14.174 275.800 C 14.318 276.570,14.608 277.200,14.818 277.200 C 15.028 277.200,15.200 277.561,15.200 278.001 C 15.200 278.442,15.560 279.475,16.000 280.296 C 16.440 281.116,16.800 282.016,16.800 282.294 C 16.800 282.572,16.960 282.800,17.155 282.800 C 17.351 282.800,17.629 283.430,17.774 284.200 C 17.918 284.970,18.194 285.600,18.386 285.600 C 18.579 285.600,18.855 286.140,19.000 286.800 C 19.145 287.460,19.415 288.000,19.600 288.000 C 19.785 288.000,20.055 288.540,20.200 289.200 C 20.345 289.860,20.615 290.400,20.800 290.400 C 20.985 290.400,21.255 290.940,21.400 291.600 C 21.545 292.260,21.815 292.800,22.000 292.800 C 22.185 292.800,22.455 293.340,22.600 294.000 C 22.745 294.660,23.029 295.200,23.232 295.200 C 23.434 295.200,23.600 295.476,23.600 295.813 C 23.600 296.149,23.859 296.524,24.176 296.646 C 24.492 296.767,24.866 297.392,25.007 298.033 C 25.148 298.675,25.429 299.200,25.632 299.200 C 25.834 299.200,26.000 299.457,26.000 299.771 C 26.000 300.086,26.227 300.581,26.505 300.871 C 26.782 301.162,27.277 301.926,27.605 302.569 C 28.760 304.838,28.993 305.200,29.295 305.200 C 29.463 305.200,29.600 305.461,29.600 305.780 C 29.600 306.099,29.825 306.504,30.100 306.680 C 30.375 306.856,30.914 307.630,31.298 308.400 C 32.128 310.067,32.819 311.169,33.500 311.912 C 33.775 312.212,34.000 312.695,34.000 312.986 C 34.000 313.277,34.270 313.618,34.600 313.745 C 34.930 313.871,35.200 314.251,35.200 314.587 C 35.200 314.924,35.335 315.205,35.500 315.211 C 35.665 315.217,36.241 315.937,36.780 316.811 C 37.320 317.685,37.905 318.400,38.080 318.400 C 38.256 318.400,38.400 318.630,38.400 318.911 C 38.400 319.192,38.715 319.704,39.100 320.049 C 39.485 320.393,40.070 321.092,40.400 321.600 C 40.730 322.108,41.315 322.807,41.700 323.151 C 42.085 323.496,42.408 323.963,42.417 324.189 C 42.426 324.415,42.966 325.042,43.617 325.581 C 44.268 326.121,44.800 326.727,44.800 326.928 C 44.800 327.129,45.520 327.992,46.400 328.846 C 47.280 329.700,48.000 330.581,48.000 330.804 C 48.000 331.475,62.770 346.800,63.416 346.800 C 63.576 346.800,64.838 347.925,66.221 349.300 C 69.116 352.179,72.110 354.811,73.110 355.355 C 73.489 355.562,73.890 355.860,74.000 356.017 C 74.359 356.530,77.782 359.033,78.500 359.307 C 78.885 359.454,79.200 359.748,79.200 359.960 C 79.200 360.173,79.588 360.469,80.062 360.620 C 80.537 360.770,81.322 361.323,81.808 361.847 C 82.294 362.371,82.856 362.800,83.057 362.800 C 83.258 362.800,83.712 363.115,84.066 363.500 C 84.942 364.453,86.489 365.600,86.898 365.600 C 87.083 365.600,87.451 365.783,87.717 366.007 C 89.633 367.623,90.182 368.000,90.618 368.000 C 90.891 368.000,91.218 368.270,91.345 368.600 C 91.471 368.930,91.851 369.200,92.187 369.200 C 92.524 369.200,92.800 369.360,92.800 369.557 C 92.800 369.753,93.250 370.026,93.800 370.164 C 94.350 370.302,94.800 370.578,94.800 370.776 C 94.800 370.974,95.325 371.252,95.967 371.393 C 96.608 371.534,97.233 371.908,97.354 372.224 C 97.476 372.541,97.836 372.800,98.154 372.800 C 98.473 372.800,98.793 372.935,98.867 373.100 C 98.940 373.265,99.900 373.850,101.000 374.400 C 102.100 374.950,103.090 375.504,103.200 375.630 C 103.310 375.757,104.480 376.387,105.800 377.030 C 107.120 377.674,108.292 378.321,108.404 378.468 C 108.516 378.616,109.101 378.860,109.704 379.012 C 110.307 379.163,110.800 379.433,110.800 379.612 C 110.800 379.790,111.340 380.055,112.000 380.200 C 112.660 380.345,113.200 380.609,113.200 380.787 C 113.200 380.965,113.830 381.229,114.600 381.374 C 115.370 381.518,116.000 381.794,116.000 381.986 C 116.000 382.179,116.540 382.455,117.200 382.600 C 117.860 382.745,118.400 383.021,118.400 383.214 C 118.400 383.406,119.070 383.690,119.890 383.843 C 120.709 383.997,121.622 384.365,121.919 384.661 C 122.215 384.958,122.894 385.200,123.429 385.200 C 123.963 385.200,124.400 385.372,124.400 385.582 C 124.400 385.792,125.030 386.082,125.800 386.226 C 126.570 386.371,127.200 386.647,127.200 386.840 C 127.200 387.033,127.920 387.306,128.800 387.446 C 129.680 387.587,130.400 387.848,130.400 388.027 C 130.400 388.205,131.210 388.472,132.200 388.621 C 133.190 388.769,134.000 389.036,134.000 389.214 C 134.000 389.391,134.585 389.662,135.300 389.814 C 136.015 389.967,136.780 390.231,137.000 390.401 C 137.220 390.571,138.164 390.836,139.098 390.990 C 140.032 391.144,140.894 391.429,141.014 391.623 C 141.135 391.818,142.125 392.095,143.216 392.240 C 144.307 392.385,145.200 392.649,145.200 392.827 C 145.200 393.005,146.055 393.275,147.100 393.426 C 148.145 393.577,149.192 393.853,149.427 394.039 C 149.661 394.224,151.506 394.601,153.527 394.877 C 155.547 395.152,157.200 395.506,157.200 395.664 C 157.200 395.822,158.460 396.076,160.000 396.227 C 161.540 396.379,162.800 396.647,162.800 396.822 C 162.800 396.997,164.420 397.267,166.400 397.422 C 168.380 397.576,170.000 397.842,170.000 398.012 C 170.000 398.182,172.115 398.452,174.700 398.611 C 177.430 398.780,179.520 399.090,179.685 399.351 C 180.091 399.989,219.909 399.989,220.315 399.351 C 220.480 399.090,222.570 398.780,225.300 398.611 C 227.885 398.452,230.000 398.178,230.000 398.003 C 230.000 397.828,231.620 397.557,233.600 397.400 C 235.580 397.243,237.200 396.972,237.200 396.798 C 237.200 396.624,238.461 396.355,240.002 396.200 C 241.542 396.045,242.892 395.775,243.001 395.599 C 243.110 395.423,244.324 395.149,245.699 394.990 C 247.075 394.831,249.258 394.363,250.552 393.950 C 251.846 393.538,253.331 393.200,253.852 393.200 C 254.373 393.200,254.800 393.043,254.800 392.852 C 254.800 392.660,255.693 392.385,256.784 392.240 C 257.875 392.095,258.865 391.818,258.986 391.623 C 259.106 391.429,259.922 391.148,260.800 391.000 C 261.678 390.852,262.488 390.582,262.600 390.400 C 262.712 390.218,263.523 389.948,264.402 389.800 C 265.281 389.651,266.000 389.386,266.000 389.210 C 266.000 389.035,266.810 388.769,267.800 388.621 C 268.790 388.472,269.600 388.184,269.600 387.980 C 269.600 387.776,270.320 387.494,271.200 387.354 C 272.080 387.213,272.800 386.961,272.800 386.793 C 272.800 386.626,273.430 386.371,274.200 386.226 C 274.970 386.082,275.600 385.806,275.600 385.614 C 275.600 385.421,276.152 385.142,276.827 384.994 C 277.502 384.846,278.537 384.473,279.127 384.165 C 279.717 383.857,280.425 383.604,280.700 383.602 C 280.975 383.601,281.200 383.440,281.200 383.245 C 281.200 383.049,281.830 382.771,282.600 382.626 C 283.370 382.482,284.000 382.206,284.000 382.014 C 284.000 381.821,284.540 381.545,285.200 381.400 C 285.860 381.255,286.400 380.985,286.400 380.800 C 286.400 380.615,286.940 380.345,287.600 380.200 C 288.260 380.055,288.800 379.785,288.800 379.600 C 288.800 379.415,289.340 379.145,290.000 379.000 C 290.660 378.855,291.200 378.585,291.200 378.400 C 291.200 378.215,291.695 377.949,292.300 377.809 C 292.905 377.668,294.120 377.115,295.000 376.579 C 295.880 376.043,297.050 375.383,297.600 375.111 C 298.150 374.839,298.690 374.519,298.800 374.400 C 298.910 374.281,299.526 373.917,300.169 373.592 C 302.416 372.454,302.800 372.208,302.800 371.905 C 302.800 371.737,303.057 371.600,303.371 371.600 C 303.686 371.600,304.181 371.373,304.471 371.095 C 304.762 370.818,305.450 370.369,306.000 370.098 C 307.273 369.471,308.417 368.737,309.112 368.100 C 309.412 367.825,309.895 367.600,310.186 367.600 C 310.477 367.600,310.818 367.330,310.945 367.000 C 311.071 366.670,311.436 366.400,311.754 366.400 C 312.073 366.400,312.393 366.265,312.467 366.100 C 312.634 365.724,315.073 364.000,315.438 364.000 C 315.587 364.000,316.125 363.550,316.635 363.000 C 317.145 362.450,317.710 362.000,317.892 362.000 C 318.074 362.000,318.530 361.640,318.907 361.200 C 319.284 360.760,319.864 360.400,320.196 360.400 C 320.528 360.400,320.800 360.237,320.800 360.037 C 320.800 359.837,321.610 359.162,322.599 358.537 C 323.589 357.912,324.399 357.265,324.399 357.100 C 324.400 356.935,324.607 356.800,324.860 356.800 C 325.112 356.800,325.931 356.170,326.679 355.400 C 327.427 354.630,328.180 354.000,328.353 354.000 C 328.527 354.000,329.490 353.190,330.494 352.200 C 331.498 351.210,332.420 350.400,332.543 350.400 C 332.858 350.400,350.400 332.943,350.400 332.629 C 350.400 332.487,351.210 331.526,352.200 330.492 C 353.190 329.459,354.000 328.449,354.000 328.247 C 354.000 328.046,354.585 327.294,355.300 326.576 C 356.599 325.273,357.270 324.448,358.400 322.768 C 358.730 322.277,359.315 321.593,359.700 321.249 C 360.085 320.904,360.400 320.458,360.400 320.257 C 360.400 320.056,360.829 319.494,361.353 319.008 C 361.877 318.522,362.424 317.753,362.568 317.299 C 362.713 316.845,363.094 316.373,363.415 316.250 C 363.737 316.126,364.000 315.749,364.000 315.413 C 364.000 315.076,364.177 314.800,364.392 314.800 C 364.608 314.800,364.894 314.363,365.028 313.829 C 365.163 313.295,365.526 312.761,365.836 312.641 C 366.146 312.522,366.400 312.149,366.400 311.813 C 366.400 311.476,366.577 311.200,366.792 311.200 C 367.008 311.200,367.294 310.763,367.428 310.229 C 367.563 309.695,367.926 309.161,368.236 309.041 C 368.546 308.922,368.800 308.564,368.800 308.246 C 368.800 307.927,368.944 307.607,369.121 307.533 C 369.298 307.460,370.120 306.230,370.949 304.800 C 371.778 303.370,372.630 301.930,372.843 301.600 C 373.055 301.270,373.442 300.505,373.702 299.900 C 373.962 299.295,374.296 298.800,374.444 298.800 C 374.592 298.800,374.826 298.350,374.964 297.800 C 375.102 297.250,375.378 296.800,375.576 296.800 C 375.774 296.800,376.055 296.260,376.200 295.600 C 376.345 294.940,376.615 294.400,376.800 294.400 C 376.985 294.400,377.255 293.860,377.400 293.200 C 377.545 292.540,377.815 292.000,378.000 292.000 C 378.185 292.000,378.455 291.460,378.600 290.800 C 378.745 290.140,379.026 289.600,379.224 289.600 C 379.422 289.600,379.698 289.150,379.836 288.600 C 379.974 288.050,380.233 287.600,380.412 287.600 C 380.590 287.600,380.855 287.060,381.000 286.400 C 381.145 285.740,381.429 285.200,381.632 285.200 C 381.834 285.200,382.001 284.975,382.002 284.700 C 382.004 284.425,382.257 283.717,382.565 283.127 C 382.873 282.537,383.246 281.502,383.394 280.827 C 383.542 280.152,383.821 279.600,384.014 279.600 C 384.206 279.600,384.482 278.970,384.626 278.200 C 384.771 277.430,385.049 276.800,385.245 276.800 C 385.440 276.800,385.601 276.575,385.602 276.300 C 385.604 276.025,385.867 275.297,386.188 274.683 C 386.508 274.069,386.887 272.944,387.030 272.183 C 387.172 271.422,387.441 270.800,387.626 270.800 C 387.812 270.800,388.082 270.168,388.227 269.396 C 388.372 268.623,388.635 267.902,388.811 267.793 C 388.986 267.685,389.252 266.878,389.400 266.000 C 389.548 265.122,389.814 264.315,389.991 264.206 C 390.167 264.097,390.545 262.836,390.829 261.404 C 391.114 259.972,391.488 258.800,391.660 258.800 C 391.832 258.800,392.092 257.900,392.238 256.800 C 392.384 255.700,392.635 254.800,392.797 254.800 C 392.959 254.800,393.206 253.963,393.346 252.940 C 393.486 251.918,393.781 250.864,394.000 250.599 C 394.220 250.335,394.516 249.012,394.657 247.659 C 394.798 246.307,395.054 245.200,395.225 245.200 C 395.396 245.200,395.662 244.030,395.815 242.600 C 395.968 241.170,396.233 240.000,396.405 240.000 C 396.576 240.000,396.844 238.560,397.000 236.800 C 397.156 235.040,397.428 233.600,397.604 233.600 C 397.781 233.600,398.055 231.845,398.214 229.700 C 398.373 227.555,398.639 225.710,398.805 225.600 C 400.259 224.637,400.244 174.963,398.789 174.000 C 398.623 173.890,398.356 172.045,398.196 169.900 C 398.036 167.755,397.765 166.000,397.594 166.000 C 397.423 166.000,397.156 164.559,397.000 162.798 C 396.844 161.037,396.569 159.505,396.390 159.394 C 396.210 159.282,395.938 158.023,395.785 156.596 C 395.632 155.168,395.365 154.000,395.193 154.000 C 395.020 154.000,394.753 152.920,394.600 151.600 C 394.447 150.280,394.182 149.200,394.012 149.200 C 393.842 149.200,393.584 148.300,393.438 147.200 C 393.292 146.100,393.019 145.200,392.832 145.200 C 392.645 145.200,392.368 144.210,392.217 143.000 C 392.066 141.790,391.786 140.800,391.596 140.800 C 391.405 140.800,391.126 139.945,390.975 138.900 C 390.825 137.855,390.364 136.245,389.951 135.322 C 389.538 134.399,389.200 133.274,389.200 132.822 C 389.200 132.370,389.065 131.999,388.900 131.997 C 388.735 131.996,388.150 130.557,387.600 128.800 C 387.050 127.043,386.479 125.604,386.332 125.603 C 386.184 125.601,385.936 125.021,385.781 124.313 C 385.625 123.605,385.347 122.750,385.163 122.413 C 384.491 121.183,383.200 118.033,383.200 117.622 C 383.200 117.390,383.034 117.200,382.832 117.200 C 382.629 117.200,382.345 116.660,382.200 116.000 C 382.055 115.340,381.791 114.800,381.613 114.800 C 381.435 114.800,381.171 114.170,381.026 113.400 C 380.882 112.630,380.606 112.000,380.414 112.000 C 380.221 112.000,379.945 111.460,379.800 110.800 C 379.655 110.140,379.385 109.600,379.200 109.600 C 379.015 109.600,378.745 109.060,378.600 108.400 C 378.455 107.740,378.174 107.200,377.976 107.200 C 377.778 107.200,377.502 106.750,377.364 106.200 C 377.226 105.650,376.967 105.200,376.788 105.200 C 376.610 105.200,376.345 104.660,376.200 104.000 C 376.055 103.340,375.810 102.800,375.656 102.800 C 375.502 102.800,375.162 102.305,374.902 101.700 C 374.408 100.552,373.566 99.143,373.168 98.800 C 373.040 98.690,372.681 98.015,372.370 97.300 C 372.059 96.585,371.669 96.000,371.502 96.000 C 371.336 96.000,371.200 95.743,371.200 95.429 C 371.200 95.114,370.975 94.612,370.700 94.313 C 370.425 94.014,370.003 93.416,369.762 92.985 C 368.492 90.706,368.183 90.183,368.000 90.000 C 367.563 89.563,366.000 87.218,366.000 86.999 C 366.000 86.871,365.817 86.549,365.593 86.283 C 364.608 85.116,363.757 84.010,363.200 83.175 C 362.870 82.680,362.285 81.993,361.900 81.649 C 361.515 81.304,361.200 80.858,361.200 80.657 C 361.200 80.456,360.771 79.894,360.247 79.408 C 359.723 78.922,359.176 78.153,359.032 77.699 C 358.887 77.245,358.506 76.773,358.185 76.650 C 357.863 76.526,357.600 76.226,357.600 75.982 C 357.600 75.738,357.060 74.998,356.400 74.338 C 355.740 73.678,355.200 72.976,355.200 72.777 C 355.200 72.577,354.615 71.787,353.900 71.019 C 353.185 70.252,351.700 68.557,350.600 67.253 C 349.500 65.949,348.195 64.654,347.700 64.374 C 347.205 64.094,346.800 63.669,346.800 63.429 C 346.800 62.631,333.321 49.443,330.622 47.600 C 330.139 47.270,329.218 46.505,328.576 45.900 C 327.934 45.295,327.285 44.800,327.135 44.800 C 326.985 44.800,326.322 44.260,325.662 43.600 C 325.002 42.940,324.308 42.400,324.120 42.400 C 323.932 42.400,323.325 41.884,322.772 41.253 C 322.218 40.623,321.385 39.986,320.920 39.838 C 320.455 39.690,319.973 39.306,319.850 38.985 C 319.726 38.663,319.431 38.400,319.193 38.400 C 318.956 38.400,318.345 37.950,317.835 37.400 C 317.325 36.850,316.731 36.400,316.515 36.400 C 316.170 36.400,315.591 35.988,313.717 34.407 C 313.451 34.183,313.129 34.000,313.001 34.000 C 312.782 34.000,310.437 32.437,310.000 32.000 C 309.655 31.655,308.254 30.822,306.800 30.098 C 306.030 29.714,305.340 29.265,305.267 29.100 C 305.193 28.935,304.873 28.800,304.554 28.800 C 304.236 28.800,303.876 28.541,303.754 28.224 C 303.633 27.908,303.008 27.534,302.367 27.393 C 301.725 27.252,301.200 27.012,301.200 26.860 C 301.200 26.708,300.348 26.137,299.307 25.592 C 298.266 25.046,297.173 24.375,296.879 24.100 C 296.584 23.825,296.086 23.600,295.771 23.600 C 295.457 23.600,295.200 23.434,295.200 23.232 C 295.200 23.029,294.660 22.745,294.000 22.600 C 293.340 22.455,292.800 22.185,292.800 22.000 C 292.800 21.815,292.260 21.545,291.600 21.400 C 290.940 21.255,290.400 20.985,290.400 20.800 C 290.400 20.615,289.860 20.345,289.200 20.200 C 288.540 20.055,288.000 19.785,288.000 19.600 C 288.000 19.415,287.460 19.145,286.800 19.000 C 286.140 18.855,285.600 18.579,285.600 18.386 C 285.600 18.194,284.970 17.918,284.200 17.774 C 283.430 17.629,282.800 17.365,282.800 17.187 C 282.800 17.009,282.260 16.745,281.600 16.600 C 280.940 16.455,280.400 16.185,280.400 16.000 C 280.400 15.815,279.815 15.536,279.100 15.381 C 278.385 15.225,277.445 14.851,277.011 14.549 C 276.577 14.247,275.812 14.000,275.311 14.000 C 274.810 14.000,274.400 13.828,274.400 13.618 C 274.400 13.408,273.770 13.118,273.000 12.974 C 272.230 12.829,271.600 12.560,271.600 12.376 C 271.600 12.191,270.520 11.828,269.200 11.568 C 267.880 11.308,266.800 10.960,266.800 10.793 C 266.800 10.627,265.990 10.369,265.000 10.221 C 264.010 10.072,263.200 9.793,263.200 9.600 C 263.200 9.407,262.390 9.128,261.400 8.979 C 260.410 8.831,259.600 8.556,259.600 8.368 C 259.600 8.181,258.700 7.908,257.600 7.762 C 256.500 7.616,255.600 7.353,255.600 7.177 C 255.600 7.001,254.610 6.734,253.400 6.583 C 252.190 6.432,251.200 6.166,251.200 5.993 C 251.200 5.820,250.120 5.553,248.800 5.400 C 247.480 5.247,246.400 4.973,246.400 4.793 C 246.400 4.612,245.230 4.338,243.800 4.185 C 242.370 4.032,241.200 3.760,241.200 3.581 C 241.200 3.402,239.760 3.129,238.000 2.976 C 236.240 2.822,234.800 2.559,234.800 2.391 C 234.800 2.223,233.135 1.956,231.100 1.798 C 229.065 1.640,227.220 1.369,227.000 1.196 C 225.653 0.132,191.007 -0.365,178.202 0.495 M131.875 72.631 C 138.408 74.143,142.662 78.181,144.698 84.800 C 145.314 86.803,145.385 91.242,145.498 134.454 L 145.622 181.908 148.111 179.301 C 152.942 174.241,157.504 170.173,160.786 168.000 C 161.285 167.670,162.077 167.109,162.546 166.754 C 165.636 164.414,174.532 159.588,178.383 158.162 C 179.822 157.629,181.360 157.029,181.800 156.829 C 185.121 155.322,193.226 153.382,198.800 152.761 C 200.670 152.552,203.201 152.206,204.424 151.991 C 207.303 151.485,215.625 151.488,219.093 151.997 C 220.582 152.216,223.240 152.564,225.000 152.771 C 229.094 153.252,232.829 153.944,233.615 154.369 C 233.954 154.552,235.027 154.836,236.000 155.000 C 236.973 155.164,238.046 155.441,238.385 155.615 C 238.723 155.789,240.620 156.508,242.600 157.214 C 249.031 159.506,261.376 166.318,264.649 169.380 C 264.897 169.611,265.977 170.514,267.049 171.386 C 271.982 175.395,279.116 183.116,282.400 188.000 C 282.730 188.491,283.292 189.277,283.649 189.746 C 286.427 193.401,294.000 207.991,294.000 209.689 C 294.000 209.904,294.248 210.646,294.551 211.340 C 295.388 213.253,296.307 216.038,296.617 217.600 C 296.769 218.370,297.008 219.180,297.147 219.400 C 297.643 220.183,299.106 227.826,300.019 234.400 C 300.559 238.284,300.564 257.311,300.026 261.200 C 297.680 278.172,289.911 298.003,282.214 306.665 C 281.986 306.921,281.411 307.641,280.935 308.265 C 276.203 314.473,270.555 320.143,264.400 324.864 C 260.967 327.497,255.210 331.339,253.000 332.472 C 246.547 335.781,243.629 337.180,242.696 337.413 C 242.089 337.565,241.494 337.849,241.373 338.044 C 241.252 338.240,240.876 338.400,240.537 338.400 C 240.198 338.400,239.354 338.653,238.660 338.963 C 236.925 339.738,232.021 341.200,231.156 341.200 C 230.766 341.200,230.344 341.367,230.217 341.572 C 230.091 341.777,228.955 342.069,227.694 342.221 C 226.432 342.374,225.220 342.638,225.000 342.808 C 224.594 343.123,219.780 343.794,213.600 344.398 C 206.692 345.073,198.562 344.809,188.800 343.592 C 186.710 343.331,184.820 342.979,184.600 342.808 C 184.380 342.638,183.168 342.374,181.906 342.221 C 180.645 342.069,179.522 341.797,179.411 341.618 C 179.300 341.439,178.353 341.165,177.305 341.009 C 176.257 340.853,175.220 340.583,175.000 340.409 C 174.780 340.235,173.970 339.961,173.200 339.800 C 172.430 339.639,171.620 339.385,171.400 339.236 C 171.180 339.086,169.920 338.550,168.600 338.045 C 148.183 330.230,128.901 312.435,119.124 292.386 C 117.560 289.178,115.600 284.758,115.600 284.437 C 115.600 284.247,115.331 283.576,115.002 282.946 C 114.674 282.316,114.404 281.431,114.402 280.980 C 114.401 280.529,114.230 279.989,114.023 279.780 C 113.816 279.571,113.467 278.680,113.249 277.800 C 113.031 276.920,112.475 274.760,112.013 273.000 C 110.988 269.093,110.072 263.542,109.567 258.179 C 108.980 251.933,109.271 84.818,109.871 83.800 C 110.131 83.360,110.721 82.166,111.184 81.148 C 114.209 74.488,123.456 70.682,131.875 72.631 M195.600 184.360 C 195.270 184.553,193.830 184.841,192.400 185.000 C 190.970 185.159,189.620 185.429,189.400 185.599 C 189.180 185.770,188.236 186.036,187.302 186.190 C 186.368 186.344,185.503 186.634,185.378 186.835 C 185.254 187.036,184.876 187.200,184.537 187.200 C 183.873 187.200,182.667 187.704,178.000 189.931 C 162.749 197.210,150.811 212.063,146.276 229.400 C 142.527 243.738,143.688 263.315,148.981 275.000 C 154.442 287.055,160.074 294.398,169.000 301.100 C 171.645 303.087,178.437 307.200,179.071 307.200 C 179.232 307.200,181.979 308.370,183.800 309.215 C 184.240 309.419,185.410 309.784,186.400 310.027 C 187.390 310.270,189.280 310.740,190.600 311.072 C 195.698 312.352,208.762 312.859,214.400 311.995 C 218.522 311.364,223.706 310.020,225.295 309.171 C 225.677 308.967,226.217 308.794,226.495 308.786 C 226.773 308.779,227.720 308.425,228.600 308.000 C 229.480 307.575,230.329 307.221,230.486 307.214 C 232.327 307.126,242.937 299.544,247.241 295.241 C 251.570 290.912,259.200 280.275,259.200 278.570 C 259.200 278.448,259.673 277.325,260.250 276.074 C 261.544 273.272,263.200 268.628,263.200 267.802 C 263.200 267.465,263.372 266.877,263.582 266.495 C 263.792 266.113,264.162 264.720,264.404 263.400 C 270.281 231.400,257.147 202.144,231.400 189.880 C 229.640 189.042,227.887 188.186,227.505 187.978 C 227.123 187.770,226.611 187.600,226.366 187.600 C 226.121 187.600,225.354 187.348,224.660 187.040 C 223.166 186.377,220.892 185.758,216.800 184.900 C 213.415 184.190,196.620 183.762,195.600 184.360 " stroke="none" fill="#24544c" fill-rule="evenodd"></path><path id="path3" d="M123.401 72.751 C 122.742 72.892,124.451 73.007,127.200 73.007 C 129.949 73.007,131.658 72.892,130.999 72.751 C 130.339 72.610,128.630 72.495,127.200 72.495 C 125.770 72.495,124.061 72.610,123.401 72.751 M136.200 74.665 C 137.222 75.633,139.733 77.271,139.127 76.574 C 138.757 76.148,137.857 75.459,137.127 75.043 C 136.397 74.627,135.980 74.457,136.200 74.665 M114.103 77.734 C 113.216 78.697,112.280 79.916,112.023 80.442 C 111.675 81.155,111.788 81.093,112.464 80.200 C 112.964 79.540,113.970 78.391,114.700 77.647 C 115.429 76.902,115.957 76.224,115.872 76.138 C 115.787 76.053,114.991 76.771,114.103 77.734 M140.974 78.900 C 141.590 79.725,142.170 80.400,142.262 80.400 C 142.614 80.400,141.631 78.954,140.763 78.196 C 140.017 77.544,140.055 77.672,140.974 78.900 M142.668 81.506 C 142.794 82.005,143.055 82.510,143.248 82.630 C 143.796 82.968,143.662 82.236,143.020 81.376 C 142.460 80.627,142.448 80.632,142.668 81.506 M144.028 85.233 C 144.044 85.765,144.219 86.560,144.419 87.000 C 144.671 87.558,144.707 87.315,144.538 86.200 C 144.255 84.343,143.987 83.836,144.028 85.233 M109.796 171.200 C 109.796 218.170,109.843 237.385,109.900 213.900 C 109.957 190.415,109.957 151.985,109.900 128.500 C 109.843 105.015,109.796 124.230,109.796 171.200 M210.700 152.282 C 211.195 152.378,212.005 152.378,212.500 152.282 C 212.995 152.187,212.590 152.109,211.600 152.109 C 210.610 152.109,210.205 152.187,210.700 152.282 M200.600 152.811 C 199.693 152.979,200.646 153.018,202.800 152.900 C 204.890 152.785,206.675 152.626,206.767 152.546 C 207.055 152.294,202.276 152.499,200.600 152.811 M216.833 152.546 C 216.925 152.626,218.710 152.788,220.800 152.906 C 223.405 153.054,224.034 153.018,222.800 152.790 C 220.990 152.457,216.523 152.274,216.833 152.546 M193.000 154.000 L 192.200 154.344 193.000 154.332 C 193.440 154.326,194.250 154.176,194.800 154.000 L 195.800 153.680 194.800 153.668 C 194.250 153.662,193.440 153.811,193.000 154.000 M228.800 154.000 C 229.350 154.176,230.160 154.320,230.600 154.320 C 231.233 154.320,231.192 154.254,230.400 154.000 C 229.850 153.824,229.040 153.680,228.600 153.680 C 227.967 153.680,228.008 153.746,228.800 154.000 M188.200 155.200 C 187.696 155.417,187.622 155.544,188.000 155.544 C 188.330 155.544,188.960 155.389,189.400 155.200 C 189.904 154.983,189.978 154.856,189.600 154.856 C 189.270 154.856,188.640 155.011,188.200 155.200 M234.000 155.200 C 235.368 155.638,236.419 155.638,235.400 155.200 C 234.960 155.011,234.240 154.862,233.800 154.868 C 233.157 154.877,233.196 154.943,234.000 155.200 M184.800 156.200 C 184.030 156.497,183.670 156.745,184.000 156.752 C 184.330 156.758,185.140 156.517,185.800 156.214 C 187.345 155.507,186.626 155.497,184.800 156.200 M237.800 156.214 C 238.460 156.517,239.270 156.758,239.600 156.752 C 239.930 156.745,239.570 156.497,238.800 156.200 C 236.974 155.497,236.255 155.507,237.800 156.214 M176.400 159.400 C 175.410 159.930,174.712 160.372,174.849 160.382 C 175.236 160.410,178.800 158.785,178.800 158.581 C 178.800 158.234,178.188 158.443,176.400 159.400 M244.800 158.576 C 244.800 158.780,248.348 160.407,248.751 160.388 C 249.114 160.370,247.805 159.645,246.196 158.973 C 245.428 158.652,244.800 158.473,244.800 158.576 M172.176 161.380 C 171.427 161.940,171.432 161.952,172.306 161.732 C 172.805 161.606,173.310 161.345,173.430 161.152 C 173.768 160.604,173.036 160.738,172.176 161.380 M250.170 161.152 C 250.290 161.345,250.795 161.606,251.294 161.732 C 252.168 161.952,252.173 161.940,251.424 161.380 C 250.564 160.738,249.832 160.604,250.170 161.152 M254.976 163.813 C 255.404 164.136,255.933 164.400,256.153 164.400 C 256.373 164.400,256.204 164.136,255.776 163.813 C 255.349 163.490,254.820 163.225,254.600 163.225 C 254.380 163.225,254.549 163.490,254.976 163.813 M164.500 165.833 C 163.345 166.614,162.400 167.324,162.400 167.412 C 162.400 167.632,164.773 166.179,166.000 165.209 C 167.585 163.955,166.793 164.285,164.500 165.833 M158.826 169.877 C 155.825 172.159,146.658 180.791,146.938 181.071 C 147.021 181.154,148.509 179.758,150.244 177.968 C 151.980 176.178,155.200 173.272,157.400 171.510 C 161.739 168.034,162.253 167.596,161.980 167.607 C 161.881 167.612,160.462 168.633,158.826 169.877 M262.000 168.125 C 262.000 168.224,262.661 168.809,263.468 169.425 C 264.276 170.041,264.811 170.341,264.656 170.091 C 264.340 169.579,262.000 167.847,262.000 168.125 M265.200 170.514 C 265.200 170.618,266.228 171.580,267.484 172.651 C 268.740 173.723,269.639 174.391,269.483 174.136 C 269.139 173.577,265.200 170.246,265.200 170.514 M270.007 174.422 C 270.010 174.520,271.753 176.400,273.879 178.600 C 276.518 181.332,276.971 181.712,275.308 179.800 C 272.882 177.012,269.994 174.082,270.007 174.422 M278.470 183.947 C 278.981 184.578,279.463 185.041,279.539 184.975 C 279.756 184.788,278.241 182.827,277.870 182.813 C 277.688 182.806,277.958 183.316,278.470 183.947 M195.461 183.598 C 192.884 184.059,192.520 184.487,195.032 184.102 C 197.502 183.723,211.917 183.705,214.600 184.078 C 216.242 184.305,216.421 184.276,215.600 183.914 C 214.357 183.365,198.182 183.112,195.461 183.598 M189.256 184.859 C 188.517 185.072,187.983 185.317,188.070 185.403 C 188.157 185.490,189.121 185.316,190.214 185.016 C 191.306 184.717,191.840 184.472,191.400 184.472 C 190.960 184.472,189.995 184.646,189.256 184.859 M218.200 184.746 C 219.371 185.234,221.926 185.658,221.200 185.244 C 220.870 185.056,219.880 184.792,219.000 184.658 C 217.991 184.503,217.695 184.536,218.200 184.746 M185.000 186.186 C 183.455 186.893,184.174 186.903,186.000 186.200 C 186.770 185.903,187.130 185.655,186.800 185.648 C 186.470 185.642,185.660 185.883,185.000 186.186 M222.446 185.756 C 222.581 185.904,223.289 186.196,224.019 186.405 C 224.785 186.625,225.188 186.632,224.973 186.421 C 224.543 186.001,222.075 185.351,222.446 185.756 M181.800 187.414 C 180.800 187.896,180.766 187.951,181.600 187.748 C 182.733 187.471,184.007 186.821,183.400 186.830 C 183.180 186.833,182.460 187.096,181.800 187.414 M226.000 186.934 C 226.000 187.037,226.581 187.324,227.291 187.572 C 228.001 187.819,228.406 187.857,228.191 187.656 C 227.735 187.229,226.000 186.658,226.000 186.934 M281.562 187.800 C 281.790 188.240,282.354 189.050,282.815 189.600 C 283.387 190.282,283.522 190.346,283.238 189.800 C 283.010 189.360,282.446 188.550,281.985 188.000 C 281.413 187.318,281.278 187.254,281.562 187.800 M173.700 191.426 C 172.765 191.987,172.000 192.540,172.000 192.655 C 172.000 192.871,174.699 191.338,175.380 190.736 C 176.067 190.128,175.427 190.391,173.700 191.426 M284.482 192.373 C 284.980 193.238,285.455 193.878,285.539 193.794 C 285.712 193.621,284.031 190.800,283.755 190.800 C 283.657 190.800,283.984 191.508,284.482 192.373 M239.800 194.270 C 240.020 194.483,241.010 195.268,242.000 196.013 C 242.990 196.759,245.330 198.811,247.200 200.575 L 250.600 203.782 247.800 200.856 C 246.260 199.247,244.010 197.168,242.800 196.236 C 240.617 194.554,238.999 193.494,239.800 194.270 M162.567 200.083 C 160.022 202.549,157.749 204.934,157.518 205.383 C 157.286 205.833,158.119 205.082,159.369 203.715 C 160.618 202.348,163.015 199.963,164.695 198.415 C 166.375 196.867,167.625 195.600,167.472 195.600 C 167.320 195.600,165.112 197.618,162.567 200.083 M289.868 201.906 C 289.994 202.405,290.255 202.910,290.448 203.030 C 290.996 203.368,290.862 202.636,290.220 201.776 C 289.660 201.027,289.648 201.032,289.868 201.906 M255.437 210.500 C 256.249 211.765,256.988 212.800,257.079 212.800 C 257.347 212.800,255.900 210.482,254.890 209.294 C 254.379 208.692,254.625 209.235,255.437 210.500 M294.812 214.000 C 294.812 214.330,294.987 214.870,295.200 215.200 C 295.545 215.733,295.588 215.733,295.588 215.200 C 295.588 214.870,295.413 214.330,295.200 214.000 C 294.855 213.467,294.812 213.467,294.812 214.000 M296.056 218.000 C 296.056 218.330,296.211 218.960,296.400 219.400 C 296.617 219.904,296.744 219.978,296.744 219.600 C 296.744 219.270,296.589 218.640,296.400 218.200 C 296.183 217.696,296.056 217.622,296.056 218.000 M260.028 218.600 C 260.028 218.820,260.286 219.450,260.600 220.000 C 260.914 220.550,261.172 220.820,261.172 220.600 C 261.172 220.380,260.914 219.750,260.600 219.200 C 260.286 218.650,260.028 218.380,260.028 218.600 M261.667 222.420 C 261.901 223.092,262.167 223.567,262.257 223.476 C 262.456 223.278,261.701 221.200,261.431 221.200 C 261.327 221.200,261.433 221.749,261.667 222.420 M297.280 222.600 C 297.280 223.040,297.424 223.850,297.600 224.400 C 297.854 225.192,297.920 225.233,297.920 224.600 C 297.920 224.160,297.776 223.350,297.600 222.800 C 297.346 222.008,297.280 221.967,297.280 222.600 M262.795 225.581 C 263.004 226.311,263.286 227.019,263.420 227.154 C 263.796 227.529,263.144 225.052,262.755 224.627 C 262.568 224.422,262.585 224.851,262.795 225.581 M263.854 229.000 C 264.274 230.903,264.848 232.046,264.556 230.400 C 264.420 229.630,264.146 228.730,263.949 228.400 C 263.714 228.008,263.681 228.216,263.854 229.000 M298.676 230.181 C 298.806 231.490,299.061 233.020,299.242 233.581 C 299.649 234.843,299.266 231.241,298.776 229.200 C 298.533 228.192,298.505 228.466,298.676 230.181 M145.449 229.415 C 145.312 229.773,145.215 230.366,145.234 230.733 C 145.253 231.100,145.427 230.869,145.621 230.220 C 145.998 228.958,145.865 228.333,145.449 229.415 M265.052 234.200 C 265.506 237.242,265.994 238.814,265.735 236.400 C 265.605 235.190,265.344 233.840,265.156 233.400 C 264.930 232.873,264.894 233.145,265.052 234.200 M144.256 234.884 C 144.121 235.388,144.030 236.340,144.053 237.000 C 144.081 237.828,144.197 237.584,144.426 236.213 C 144.776 234.123,144.674 233.326,144.256 234.884 M299.800 248.000 C 299.800 254.490,299.913 258.540,300.050 257.000 C 300.188 255.460,300.301 251.410,300.301 248.000 C 300.301 244.590,300.188 240.540,300.050 239.000 C 299.913 237.460,299.800 241.510,299.800 248.000 M143.693 239.600 C 143.693 240.370,143.775 240.685,143.876 240.300 C 143.976 239.915,143.976 239.285,143.876 238.900 C 143.775 238.515,143.693 238.830,143.693 239.600 M266.540 248.000 C 266.540 249.870,266.609 250.635,266.693 249.700 C 266.777 248.765,266.777 247.235,266.693 246.300 C 266.609 245.365,266.540 246.130,266.540 248.000 M143.328 248.000 C 143.328 249.430,143.401 250.015,143.489 249.300 C 143.578 248.585,143.578 247.415,143.489 246.700 C 143.401 245.985,143.328 246.570,143.328 248.000 M143.693 256.400 C 143.693 257.170,143.775 257.485,143.876 257.100 C 143.976 256.715,143.976 256.085,143.876 255.700 C 143.775 255.315,143.693 255.630,143.693 256.400 M110.093 259.200 C 110.093 259.970,110.175 260.285,110.276 259.900 C 110.376 259.515,110.376 258.885,110.276 258.500 C 110.175 258.115,110.093 258.430,110.093 259.200 M144.028 259.233 C 144.044 259.985,144.212 260.960,144.403 261.400 C 144.626 261.915,144.667 261.487,144.518 260.200 C 144.244 257.822,143.989 257.319,144.028 259.233 M265.469 259.156 C 265.321 259.895,265.220 260.882,265.244 261.350 C 265.268 261.818,265.447 261.390,265.642 260.400 C 265.837 259.410,265.938 258.423,265.867 258.206 C 265.796 257.990,265.617 258.417,265.469 259.156 M298.822 264.222 C 298.552 265.896,298.411 267.345,298.509 267.443 C 298.607 267.540,298.908 266.251,299.178 264.578 C 299.448 262.904,299.589 261.455,299.491 261.357 C 299.393 261.260,299.092 262.549,298.822 264.222 M110.672 264.200 C 110.799 265.300,110.969 266.275,111.051 266.367 C 111.332 266.682,111.120 264.199,110.780 263.200 C 110.551 262.526,110.516 262.851,110.672 264.200 M264.224 265.500 C 264.080 266.105,263.860 266.960,263.736 267.400 C 263.586 267.930,263.644 268.065,263.907 267.800 C 264.313 267.390,264.977 264.400,264.661 264.400 C 264.565 264.400,264.369 264.895,264.224 265.500 M145.206 265.433 C 145.209 265.855,145.395 266.470,145.618 266.800 C 145.915 267.238,145.952 267.076,145.756 266.200 C 145.427 264.729,145.198 264.410,145.206 265.433 M262.880 270.280 C 262.630 271.094,262.492 271.826,262.573 271.906 C 262.654 271.987,262.936 271.399,263.200 270.600 C 263.464 269.801,263.602 269.069,263.507 268.974 C 263.412 268.878,263.130 269.466,262.880 270.280 M111.844 270.600 C 112.173 272.071,112.402 272.390,112.394 271.367 C 112.391 270.945,112.205 270.330,111.982 270.000 C 111.685 269.562,111.648 269.724,111.844 270.600 M297.450 271.650 C 297.309 272.353,297.269 273.002,297.359 273.092 C 297.450 273.183,297.648 272.691,297.800 272.000 C 297.952 271.309,297.993 270.659,297.891 270.558 C 297.789 270.456,297.591 270.947,297.450 271.650 M147.429 272.800 C 147.576 273.350,147.864 274.070,148.067 274.400 C 148.325 274.817,148.357 274.695,148.171 274.000 C 148.024 273.450,147.736 272.730,147.533 272.400 C 147.275 271.983,147.243 272.105,147.429 272.800 M261.667 273.580 C 261.433 274.251,261.327 274.800,261.431 274.800 C 261.701 274.800,262.456 272.722,262.257 272.524 C 262.167 272.433,261.901 272.908,261.667 273.580 M112.856 274.800 C 112.856 275.130,113.011 275.760,113.200 276.200 C 113.417 276.704,113.544 276.778,113.544 276.400 C 113.544 276.070,113.389 275.440,113.200 275.000 C 112.983 274.496,112.856 274.422,112.856 274.800 M296.229 276.229 C 296.081 276.815,296.038 277.372,296.132 277.466 C 296.227 277.560,296.424 277.158,296.571 276.571 C 296.719 275.985,296.762 275.428,296.668 275.334 C 296.573 275.240,296.376 275.642,296.229 276.229 M258.600 280.400 C 258.043 281.500,257.677 282.400,257.787 282.400 C 257.897 282.400,258.443 281.500,259.000 280.400 C 259.557 279.300,259.923 278.400,259.813 278.400 C 259.703 278.400,259.157 279.300,258.600 280.400 M152.000 282.800 C 152.449 283.680,152.906 284.400,153.016 284.400 C 153.126 284.400,152.849 283.680,152.400 282.800 C 151.951 281.920,151.494 281.200,151.384 281.200 C 151.274 281.200,151.551 281.920,152.000 282.800 M293.800 283.600 C 293.650 284.073,293.617 284.550,293.727 284.660 C 293.837 284.770,294.050 284.473,294.200 284.000 C 294.350 283.527,294.383 283.050,294.273 282.940 C 294.163 282.830,293.950 283.127,293.800 283.600 M254.985 286.500 C 254.368 287.435,254.120 287.989,254.432 287.731 C 255.033 287.234,256.564 284.800,256.276 284.800 C 256.183 284.800,255.602 285.565,254.985 286.500 M157.416 290.800 C 158.731 292.493,161.601 295.582,161.581 295.283 C 161.571 295.127,160.455 293.830,159.101 292.400 C 157.747 290.970,156.989 290.250,157.416 290.800 M249.200 293.800 C 248.228 294.790,247.606 295.583,247.817 295.562 C 248.189 295.526,251.473 292.000,251.135 292.000 C 251.042 292.000,250.172 292.810,249.200 293.800 M121.000 295.200 C 121.557 296.300,122.103 297.200,122.213 297.200 C 122.323 297.200,121.957 296.300,121.400 295.200 C 120.843 294.100,120.297 293.200,120.187 293.200 C 120.077 293.200,120.443 294.100,121.000 295.200 M163.600 297.565 C 164.590 298.482,165.940 299.616,166.600 300.084 C 167.260 300.551,166.648 299.869,165.240 298.567 C 163.832 297.265,162.482 296.131,162.240 296.048 C 161.998 295.964,162.610 296.647,163.600 297.565 M245.381 297.700 L 243.800 299.400 245.594 297.800 C 246.580 296.920,247.465 296.155,247.561 296.100 C 247.656 296.045,247.560 296.000,247.348 296.000 C 247.136 296.000,246.251 296.765,245.381 297.700 M285.921 299.900 C 283.779 303.160,283.515 303.600,283.701 303.600 C 283.876 303.600,284.441 302.795,286.578 299.500 C 286.971 298.895,287.205 298.400,287.099 298.400 C 286.993 298.400,286.463 299.075,285.921 299.900 M123.846 300.100 C 124.686 301.532,127.255 305.200,127.418 305.200 C 127.522 305.200,126.769 303.940,125.745 302.400 C 124.720 300.860,123.808 299.600,123.718 299.600 C 123.627 299.600,123.685 299.825,123.846 300.100 M238.481 302.972 C 236.623 304.285,236.362 304.661,237.931 303.762 C 238.663 303.343,239.450 302.775,239.680 302.500 C 240.271 301.793,239.993 301.902,238.481 302.972 M280.981 307.100 C 279.708 308.805,279.038 309.873,279.493 309.474 C 280.353 308.719,283.785 304.000,283.474 304.000 C 283.377 304.000,282.255 305.395,280.981 307.100 M180.000 308.231 C 180.000 308.501,182.078 309.256,182.276 309.057 C 182.367 308.967,181.892 308.701,181.220 308.467 C 180.549 308.233,180.000 308.127,180.000 308.231 M131.600 310.800 C 132.521 311.900,133.364 312.800,133.474 312.800 C 133.584 312.800,132.921 311.900,132.000 310.800 C 131.079 309.700,130.236 308.800,130.126 308.800 C 130.016 308.800,130.679 309.700,131.600 310.800 M225.000 309.814 C 224.000 310.296,223.966 310.351,224.800 310.148 C 225.933 309.871,227.207 309.221,226.600 309.230 C 226.380 309.233,225.660 309.496,225.000 309.814 M187.400 311.014 C 188.060 311.317,188.960 311.560,189.400 311.555 C 189.840 311.550,189.390 311.291,188.400 310.979 C 186.179 310.280,185.822 310.292,187.400 311.014 M221.000 311.015 C 219.416 311.563,219.414 311.566,220.800 311.338 C 221.570 311.212,222.470 310.954,222.800 310.766 C 223.681 310.264,222.830 310.382,221.000 311.015 M193.400 312.400 C 194.060 312.568,195.140 312.706,195.800 312.707 C 196.809 312.708,196.745 312.655,195.400 312.377 C 193.374 311.958,191.737 311.977,193.400 312.400 M214.000 312.400 C 212.650 312.684,212.643 312.695,213.800 312.700 C 214.460 312.703,215.540 312.568,216.200 312.400 C 217.860 311.978,216.007 311.978,214.000 312.400 M203.700 313.487 C 204.305 313.578,205.295 313.578,205.900 313.487 C 206.505 313.395,206.010 313.320,204.800 313.320 C 203.590 313.320,203.095 313.395,203.700 313.487 M272.521 316.811 C 270.498 318.785,268.972 320.400,269.130 320.400 C 269.287 320.400,271.029 318.780,273.000 316.800 C 274.971 314.820,276.497 313.205,276.392 313.211 C 276.286 313.217,274.545 314.837,272.521 316.811 M137.200 317.000 C 138.617 318.430,139.867 319.600,139.977 319.600 C 140.087 319.600,139.017 318.430,137.600 317.000 C 136.183 315.570,134.933 314.400,134.823 314.400 C 134.713 314.400,135.783 315.570,137.200 317.000 M141.317 320.664 C 141.661 321.223,145.600 324.554,145.600 324.286 C 145.600 324.182,144.572 323.220,143.316 322.149 C 142.060 321.077,141.161 320.409,141.317 320.664 M150.000 327.585 C 150.550 328.046,151.360 328.610,151.800 328.838 C 152.346 329.122,152.282 328.987,151.600 328.415 C 151.050 327.954,150.240 327.390,149.800 327.162 C 149.254 326.878,149.318 327.013,150.000 327.585 M259.354 327.668 C 257.729 328.891,257.263 329.373,258.200 328.860 C 259.240 328.291,261.072 326.820,260.754 326.809 C 260.619 326.804,259.989 327.191,259.354 327.668 M153.499 329.853 C 154.551 330.726,158.400 332.932,158.400 332.661 C 158.400 332.559,157.545 331.979,156.500 331.372 C 155.455 330.765,154.150 330.006,153.600 329.686 L 152.600 329.105 153.499 329.853 M244.800 335.800 C 244.250 336.114,243.980 336.372,244.200 336.372 C 244.420 336.372,245.050 336.114,245.600 335.800 C 246.150 335.486,246.420 335.228,246.200 335.228 C 245.980 335.228,245.350 335.486,244.800 335.800 M170.400 338.333 C 170.730 338.536,171.450 338.824,172.000 338.971 C 172.695 339.157,172.817 339.125,172.400 338.867 C 172.070 338.664,171.350 338.376,170.800 338.229 C 170.105 338.043,169.983 338.075,170.400 338.333 M237.800 338.614 C 236.800 339.096,236.766 339.151,237.600 338.948 C 238.733 338.671,240.007 338.021,239.400 338.030 C 239.180 338.033,238.460 338.296,237.800 338.614 M173.800 339.600 C 174.240 339.789,174.870 339.944,175.200 339.944 C 175.578 339.944,175.504 339.817,175.000 339.600 C 174.560 339.411,173.930 339.256,173.600 339.256 C 173.222 339.256,173.296 339.383,173.800 339.600 M234.600 339.600 C 234.096 339.817,234.022 339.944,234.400 339.944 C 234.730 339.944,235.360 339.789,235.800 339.600 C 236.304 339.383,236.378 339.256,236.000 339.256 C 235.670 339.256,235.040 339.411,234.600 339.600 M177.800 340.739 C 179.037 341.268,181.110 341.677,180.400 341.251 C 180.070 341.054,179.170 340.780,178.400 340.644 C 177.456 340.477,177.260 340.508,177.800 340.739 M230.400 340.800 C 229.596 341.057,229.557 341.123,230.200 341.132 C 230.640 341.138,231.360 340.989,231.800 340.800 C 232.819 340.362,231.768 340.362,230.400 340.800 M182.600 341.956 C 183.040 342.135,184.210 342.392,185.200 342.526 C 186.275 342.672,186.678 342.639,186.200 342.444 C 185.760 342.265,184.590 342.008,183.600 341.874 C 182.525 341.728,182.122 341.761,182.600 341.956 M224.400 342.097 C 223.410 342.324,222.780 342.570,223.000 342.644 C 223.220 342.718,224.390 342.533,225.600 342.234 C 228.146 341.603,227.088 341.483,224.400 342.097 M189.200 343.220 C 190.190 343.397,191.540 343.532,192.200 343.520 C 193.085 343.505,192.928 343.416,191.600 343.180 C 190.610 343.003,189.260 342.868,188.600 342.880 C 187.715 342.895,187.872 342.984,189.200 343.220 M217.800 343.200 C 216.439 343.444,216.379 343.492,217.400 343.520 C 218.060 343.539,219.320 343.405,220.200 343.223 C 222.293 342.790,220.202 342.770,217.800 343.200 M202.900 344.294 C 203.945 344.376,205.655 344.376,206.700 344.294 C 207.745 344.212,206.890 344.144,204.800 344.144 C 202.710 344.144,201.855 344.212,202.900 344.294 " stroke="none" fill="#ad8367" fill-rule="evenodd"></path><path id="path4" d="M125.700 72.291 C 126.525 72.378,127.875 72.378,128.700 72.291 C 129.525 72.205,128.850 72.134,127.200 72.134 C 125.550 72.134,124.875 72.205,125.700 72.291 M140.975 78.132 C 141.591 78.939,142.176 79.600,142.275 79.600 C 142.553 79.600,140.821 77.260,140.309 76.944 C 140.059 76.789,140.359 77.324,140.975 78.132 M145.102 128.200 C 145.158 151.300,145.253 172.990,145.313 176.400 C 145.373 179.810,145.449 161.720,145.481 136.200 C 145.514 110.680,145.419 88.990,145.270 88.000 C 145.122 87.010,145.046 105.100,145.102 128.200 M204.879 151.940 C 204.372 152.083,207.513 152.200,211.858 152.200 C 216.204 152.200,219.229 152.086,218.580 151.947 C 217.020 151.613,206.056 151.607,204.879 151.940 M195.200 153.206 C 194.778 153.482,195.015 153.523,196.000 153.342 C 197.725 153.025,198.051 152.798,196.767 152.806 C 196.235 152.809,195.530 152.989,195.200 153.206 M226.033 152.943 C 226.125 153.021,226.830 153.201,227.600 153.342 C 228.585 153.523,228.822 153.482,228.400 153.206 C 227.858 152.850,225.637 152.603,226.033 152.943 M189.600 154.418 C 189.162 154.715,189.324 154.752,190.200 154.556 C 191.671 154.227,191.990 153.998,190.967 154.006 C 190.545 154.009,189.930 154.195,189.600 154.418 M154.175 173.300 L 153.000 174.600 154.300 173.425 C 155.512 172.330,155.784 172.000,155.475 172.000 C 155.406 172.000,154.821 172.585,154.175 173.300 M272.800 177.000 C 274.881 179.090,276.674 180.800,276.784 180.800 C 276.894 180.800,275.281 179.090,273.200 177.000 C 271.119 174.910,269.326 173.200,269.216 173.200 C 269.106 173.200,270.719 174.910,272.800 177.000 M202.300 183.896 C 203.675 183.974,205.925 183.974,207.300 183.896 C 208.675 183.818,207.550 183.754,204.800 183.754 C 202.050 183.754,200.925 183.818,202.300 183.896 M194.200 184.400 C 193.093 184.682,193.077 184.709,194.000 184.747 C 194.550 184.769,195.270 184.613,195.600 184.400 C 196.281 183.960,195.929 183.960,194.200 184.400 M214.000 184.382 C 214.330 184.605,214.945 184.791,215.367 184.794 C 216.390 184.802,216.071 184.573,214.600 184.244 C 213.724 184.048,213.562 184.085,214.000 184.382 M224.000 186.631 C 224.000 186.901,226.078 187.656,226.276 187.457 C 226.367 187.367,225.892 187.101,225.220 186.867 C 224.549 186.633,224.000 186.527,224.000 186.631 M165.775 197.700 L 164.600 199.000 165.900 197.825 C 167.112 196.730,167.384 196.400,167.075 196.400 C 167.006 196.400,166.421 196.985,165.775 197.700 M262.067 224.820 C 262.301 225.492,262.567 225.967,262.657 225.876 C 262.856 225.678,262.101 223.600,261.831 223.600 C 261.727 223.600,261.833 224.149,262.067 224.820 M298.244 225.000 C 298.573 226.471,298.802 226.790,298.794 225.767 C 298.791 225.345,298.605 224.730,298.382 224.400 C 298.085 223.962,298.048 224.124,298.244 225.000 M299.693 233.200 C 299.693 233.970,299.775 234.285,299.876 233.900 C 299.976 233.515,299.976 232.885,299.876 232.500 C 299.775 232.115,299.693 232.430,299.693 233.200 M145.000 233.600 C 144.848 234.291,144.807 234.941,144.909 235.042 C 145.011 235.144,145.209 234.653,145.350 233.950 C 145.683 232.283,145.360 231.960,145.000 233.600 M264.406 233.433 C 264.409 233.855,264.595 234.470,264.818 234.800 C 265.115 235.238,265.152 235.076,264.956 234.200 C 264.627 232.729,264.398 232.410,264.406 233.433 M144.101 241.000 C 144.105 241.880,144.187 242.193,144.283 241.695 C 144.379 241.198,144.375 240.478,144.275 240.095 C 144.175 239.713,144.096 240.120,144.101 241.000 M265.784 248.000 C 265.784 254.948,265.820 255.374,266.111 251.900 C 266.290 249.755,266.290 246.245,266.111 244.100 C 265.820 240.626,265.784 241.052,265.784 248.000 M143.755 248.200 C 143.756 251.060,143.820 252.178,143.897 250.683 C 143.974 249.189,143.974 246.849,143.896 245.483 C 143.818 244.118,143.755 245.340,143.755 248.200 M300.528 248.000 C 300.528 249.430,300.601 250.015,300.689 249.300 C 300.778 248.585,300.778 247.415,300.689 246.700 C 300.601 245.985,300.528 246.570,300.528 248.000 M109.301 255.000 C 109.305 255.880,109.387 256.193,109.483 255.695 C 109.579 255.198,109.575 254.478,109.475 254.095 C 109.375 253.713,109.296 254.120,109.301 255.000 M144.101 255.000 C 144.105 255.880,144.187 256.193,144.283 255.695 C 144.379 255.198,144.375 254.478,144.275 254.095 C 144.175 253.713,144.096 254.120,144.101 255.000 M264.649 261.415 C 264.512 261.773,264.418 262.456,264.441 262.933 C 264.467 263.481,264.603 263.286,264.810 262.403 C 265.160 260.916,265.065 260.333,264.649 261.415 M299.654 262.000 C 299.619 262.550,299.496 263.450,299.383 264.000 L 299.177 265.000 299.607 264.015 C 299.843 263.474,299.965 262.574,299.878 262.015 L 299.720 261.000 299.654 262.000 M298.446 269.267 C 298.421 269.634,298.296 270.264,298.170 270.667 C 297.952 271.362,297.963 271.363,298.397 270.687 C 298.648 270.296,298.773 269.666,298.673 269.287 C 298.511 268.668,298.488 268.666,298.446 269.267 M113.418 278.500 C 113.568 278.995,113.855 279.576,114.056 279.791 C 114.257 280.006,114.219 279.601,113.972 278.891 C 113.465 277.438,112.997 277.108,113.418 278.500 M114.618 282.100 C 114.768 282.595,115.055 283.176,115.256 283.391 C 115.457 283.606,115.419 283.201,115.172 282.491 C 114.665 281.038,114.197 280.708,114.618 282.100 M162.400 295.800 C 163.817 297.230,165.067 298.400,165.177 298.400 C 165.287 298.400,164.217 297.230,162.800 295.800 C 161.383 294.370,160.133 293.200,160.023 293.200 C 159.913 293.200,160.983 294.370,162.400 295.800 M246.581 296.100 L 245.000 297.800 246.700 296.219 C 247.635 295.349,248.400 294.584,248.400 294.519 C 248.400 294.216,248.052 294.519,246.581 296.100 M190.833 311.344 C 190.925 311.423,191.540 311.608,192.200 311.756 C 193.076 311.952,193.238 311.915,192.800 311.618 C 192.260 311.253,190.432 310.998,190.833 311.344 M276.378 313.500 L 275.000 315.000 276.500 313.622 C 277.896 312.338,278.184 312.000,277.878 312.000 C 277.812 312.000,277.137 312.675,276.378 313.500 M201.943 312.845 C 203.573 313.035,206.071 313.034,207.543 312.844 C 209.871 312.544,209.508 312.501,204.600 312.502 C 199.471 312.504,199.247 312.532,201.943 312.845 M269.578 320.300 L 268.200 321.800 269.700 320.422 C 271.096 319.138,271.384 318.800,271.078 318.800 C 271.012 318.800,270.337 319.475,269.578 320.300 M139.200 319.325 C 139.200 319.394,139.785 319.979,140.500 320.625 L 141.800 321.800 140.625 320.500 C 139.530 319.288,139.200 319.016,139.200 319.325 M184.600 342.800 C 184.736 343.020,185.242 343.187,185.724 343.172 C 186.569 343.145,186.571 343.131,185.800 342.800 C 184.699 342.327,184.308 342.327,184.600 342.800 M192.200 344.010 C 192.970 344.331,196.707 344.551,196.367 344.255 C 196.275 344.176,195.120 344.013,193.800 343.893 C 192.351 343.762,191.717 343.808,192.200 344.010 M215.000 344.000 L 213.000 344.274 214.800 344.309 C 215.790 344.328,216.960 344.189,217.400 344.000 C 218.313 343.608,217.862 343.608,215.000 344.000 M201.500 344.698 C 203.315 344.772,206.285 344.772,208.100 344.698 C 209.915 344.623,208.430 344.563,204.800 344.563 C 201.170 344.563,199.685 344.623,201.500 344.698 " stroke="none" fill="#546454" fill-rule="evenodd"></path></g></svg>